[center]
[URL=http://img7.imageshack.us/i/planetdinosaur.jpg/][IMG]http://img7.imageshack.us/img7/7870/planetdinosaur.jpg[/IMG][/URL]
-=-=-=-=-=-=-=-=-=-=-=-


[b]Planet Dinosaur 
-------------------
Season 1 Episode 3 of 6[/b]

[b]Last Killers.[/b] The documentary series reaches the Cretaceous period, 75 million years ago, 
when Earth was dominated by the last generation of gigantic carnivores that took killing 
to a new level. They included the daspletosaurus, which hunted in gangs and used its 
highly developed smell and hearing to take down opponents like the horned rhino-sized chasmosuarus. 
Also featured is the sharp-toothed majungasaurus, a predator of much smaller creatures 
that would occasionally turn cannibal and hunt its own kind

Category Documentary
Executive Producer Andrew Cohen
Series Producer Nigel Paterson
Cast
Narrator John Hurt (IMDB)
 
-=-=-=-=-=-=-=-=-=-

[b]File info[/b]

Format                           : AVI
Format/Info                      : Audio Video Interleave
File size                        : 351 MiB
Duration                         : 28mn 45s
Overall bit rate                 : 1 707 Kbps
Writing library                  : VirtualDub build 32842/release

Video
ID                               : 0
Format                           : MPEG-4 Visual
Format profile                   : Simple@L1
Format settings, BVOP            : No
Format settings, QPel            : No
Format settings, GMC             : No warppoints
Format settings, Matrix          : Default (H.263)
Codec ID                         : XVID
Codec ID/Hint                    : XviD
Duration                         : 28mn 45s
Bit rate                         : 1 569 Kbps
Width                            : 720 pixels
Height                           : 420 pixels
Display aspect ratio             : 16:9
Frame rate                       : 25.000 fps
Color space                      : YUV
Chroma subsampling               : 4:2:0
Bit depth                        : 8 bits
Scan type                        : Progressive
Compression mode                 : Lossy
Bits/(Pixel*Frame)               : 0.208
Stream size                      : 323 MiB (92%)
Writing library                  : Lavc52.41.0

Audio
ID                               : 1
Format                           : MPEG Audio
Format version                   : Version 1
Format profile                   : Layer 3
Mode                             : Joint stereo
Mode extension                   : MS Stereo
Codec ID                         : 55
Codec ID/Hint                    : MP3
Duration                         : 28mn 45s
Bit rate mode                    : Constant
Bit rate                         : 128 Kbps
Channel(s)                       : 2 channels
Sampling rate                    : 48.0 KHz
Compression mode                 : Lossy
Stream size                      : 26.3 MiB (7%)
Alignment                        : Split accross interleaves
Interleave, duration             : 40 ms (1.00 video frame)
Interleave, preload duration     : 500 ms
Writing library                  : LAME3.98.2

spoken language: Engish

--------------------------------

[b]Screenshots[/b]

[URL=http://img10.imageshack.us/i/bbcplanetdinosaurs01e03.jpg/][IMG]http://img10.imageshack.us/img10/3479/bbcplanetdinosaurs01e03.jpg[/IMG][/URL]

[b]Hash:[/b]
3533F8DBFE4BB6D5078265102A4660D71D8ECCAE
[/center]